<svg aria-hidden="true" style="position: absolute; width: 0; height: 0; overflow: hidden;" version="1.1" xmlns="http://www.w3.org/2000/svg" xmlns:xlink="http://www.w3.org/1999/xlink">
<defs>
<symbol id="icon-bolt" viewBox="0 0 20 20">
<path d="M13 8v-8l-10 12h4v8l10-12h-4z"></path>
</symbol>
<symbol id="icon-cheveron-down" viewBox="0 0 20 20">
<path d="M9.293 12.95l0.707 0.707 5.657-5.657-1.414-1.414-4.243 4.242-4.243-4.242-1.414 1.414z"></path>
</symbol>
<symbol id="icon-cheveron-right" viewBox="0 0 20 20">
<path d="M12.95 10.707l0.707-0.707-5.657-5.657-1.414 1.414 4.242 4.243-4.242 4.243 1.414 1.414 4.95-4.95z"></path>
</symbol>
<symbol id="icon-globe" viewBox="0 0 20 20">
<path d="M10 20c-5.523 0-10-4.477-10-10s4.477-10 10-10v0c5.523 0 10 4.477 10 10s-4.477 10-10 10v0zM12 17.75c1.602-0.424 2.964-1.287 3.993-2.451l0.007-0.009v-6.29c-1.105 0-2-0.895-2-2v0-3.93c-0.864-0.506-1.879-0.86-2.961-0.996l-0.039-0.004v0.93c0 1.105-0.895 2-2 2v0 1c0 1.105-0.895 2-2 2v0 2h3c1.105 0 2 0.895 2 2v0 5.75zM8 17.75v-2.75c-1.105 0-2-0.895-2-2v0-1h-0.5c-0.828 0-1.5-0.672-1.5-1.5v0-2.5h-1.75c-0.16 0.599-0.253 1.287-0.253 1.996 0 3.71 2.523 6.832 5.947 7.742l0.056 0.013z"></path>
</symbol>
<symbol id="icon-home" viewBox="0 0 20 20">
<path d="M8 20h-5v-10h-3l10-10 10 10h-3v10h-5v-6h-4v6z"></path>
</symbol>
<symbol id="icon-hot" viewBox="0 0 20 20">
<path d="M10 0s8 7.58 8 12c0 4.418-3.582 8-8 8s-8-3.582-8-8v0c0-1.5 0.91-3.35 2.12-5.15 0.376 1.258 1.522 2.16 2.88 2.16 1.657 0 3-1.343 3-3 0-0.004 0-0.007-0-0.011v0.001-6zM8 0c-1.657 0-3 1.343-3 3s1.343 3 3 3v0-6z"></path>
</symbol>
<symbol id="icon-location-park" viewBox="0 0 20 20">
<path d="M5.33 12.77c-0.41 0.155-0.884 0.245-1.38 0.245-2.209 0-4-1.791-4-4 0-1.872 1.286-3.443 3.022-3.88l0.028-0.006v-0.13c0-0.001 0-0.003 0-0.004 0-2.209 1.791-4 4-4 0.621 0 1.209 0.142 1.734 0.394l-0.024-0.010c0.646-0.846 1.655-1.386 2.79-1.386 1.773 0 3.238 1.318 3.468 3.028l0.002 0.018c1.038 0.205 1.836 1.030 1.998 2.066l0.002 0.014c1.748 0.454 3.017 2.017 3.017 3.877 0 2.209-1.791 4-4 4-0.624 0-1.215-0.143-1.741-0.398l0.024 0.010c-0.541 0.869-1.317 1.548-2.238 1.957l-0.032 0.013v3.42l2 1v1h-8v-1l2-1v-3l-2.67-2.23zM5 10l3 3v-3h-3z"></path>
</symbol>
<symbol id="icon-send" viewBox="0 0 20 20">
<path d="M0 0l20 10-20 10v-20zM0 8v4l10-2-10-2z"></path>
</symbol>
<symbol id="icon-toolscopy" viewBox="0 0 20 20">
<path d="M10 0s8 7.58 8 12c0 4.418-3.582 8-8 8s-8-3.582-8-8v0c0-1.5 0.91-3.35 2.12-5.15 0.376 1.258 1.522 2.16 2.88 2.16 1.657 0 3-1.343 3-3 0-0.004 0-0.007-0-0.011v0.001-6zM8 0c-1.657 0-3 1.343-3 3s1.343 3 3 3v0-6z"></path>
</symbol>
<symbol id="icon-yin-yang" viewBox="0 0 20 20">
<path d="M10 20c-5.523 0-10-4.477-10-10s4.477-10 10-10v0c5.523 0 10 4.477 10 10s-4.477 10-10 10v0zM10 2c-4.418 0-8 3.582-8 8s3.582 8 8 8v0c-2.209 0-4-1.791-4-4s1.791-4 4-4v0c2.209 0 4-1.791 4-4s-1.791-4-4-4v0zM10 15c0.552 0 1-0.448 1-1s-0.448-1-1-1v0c-0.552 0-1 0.448-1 1s0.448 1 1 1v0zM10 7c-0.552 0-1-0.448-1-1s0.448-1 1-1v0c0.552 0 1 0.448 1 1s-0.448 1-1 1v0z"></path>
</symbol>
<symbol id="icon-quill" viewBox="0 0 32 32">
<path d="M0 32c4-12 14.469-32 32-32-8.219 6.594-12 22-18 22s-6 0-6 0l-6 10h-2z"></path>
</symbol>
<symbol id="icon-pacman" viewBox="0 0 32 32">
<path d="M30.148 5.588c-2.934-3.42-7.288-5.588-12.148-5.588-8.837 0-16 7.163-16 16s7.163 16 16 16c4.86 0 9.213-2.167 12.148-5.588l-10.148-10.412 10.148-10.412zM22 3.769c1.232 0 2.231 0.999 2.231 2.231s-0.999 2.231-2.231 2.231-2.231-0.999-2.231-2.231c0-1.232 0.999-2.231 2.231-2.231z"></path>
</symbol>
<symbol id="icon-folder-open" viewBox="0 0 32 32">
<path d="M26 30l6-16h-26l-6 16zM4 12l-4 18v-26h9l4 4h13v4z"></path>
</symbol>
<symbol id="icon-map2" viewBox="0 0 32 32">
<path d="M21 6l-10-4-11 4v24l11-4 10 4 11-4v-24l-11 4zM12 4.554l8 3.2v19.692l-8-3.2v-19.692zM2 7.401l8-2.909v19.744l-8 2.909v-19.744zM30 24.599l-8 2.909v-19.744l8-2.909v19.744z"></path>
</symbol>
<symbol id="icon-key2" viewBox="0 0 32 32">
<path d="M31.317 9.82l-3.16-3.159c-0.775-0.775-2.043-2.043-2.818-2.818l-3.16-3.159c-0.775-0.775-2.155-0.911-3.067-0.304l-8.639 5.759c-0.912 0.608-1.257 1.907-0.767 2.887l2.203 4.405c0.067 0.135 0.145 0.278 0.231 0.427l-11.142 11.142-1 7h6v-2h4v-4h4v-4h4v-2.225c0.2 0.119 0.392 0.226 0.569 0.314l4.405 2.203c0.98 0.49 2.279 0.145 2.887-0.767l5.759-8.639c0.608-0.912 0.471-2.292-0.304-3.066zM4.707 26.707l-1.414-1.414 9.737-9.737 1.414 1.414-9.737 9.737zM28.657 13.243l-1.414 1.414c-0.389 0.389-1.025 0.389-1.414 0l-8.485-8.485c-0.389-0.389-0.389-1.025 0-1.414l1.414-1.414c0.389-0.389 1.025-0.389 1.414 0l8.485 8.485c0.389 0.389 0.389 1.025 0 1.414z"></path>
</symbol>
<symbol id="icon-fire" viewBox="0 0 32 32">
<path d="M10.031 32c-2.133-4.438-0.997-6.981 0.642-9.376 1.795-2.624 2.258-5.221 2.258-5.221s1.411 1.834 0.847 4.703c2.493-2.775 2.963-7.196 2.587-8.889 5.635 3.938 8.043 12.464 4.798 18.783 17.262-9.767 4.294-24.38 2.036-26.027 0.753 1.646 0.895 4.433-0.625 5.785-2.573-9.759-8.937-11.759-8.937-11.759 0.753 5.033-2.728 10.536-6.084 14.648-0.118-2.007-0.243-3.392-1.298-5.312-0.237 3.646-3.023 6.617-3.777 10.27-1.022 4.946 0.765 8.568 7.555 12.394z"></path>
</symbol>
<symbol id="icon-power" viewBox="0 0 32 32">
<path d="M12 0l-12 16h12l-8 16 28-20h-16l12-12z"></path>
</symbol>
<symbol id="icon-star-empty" viewBox="0 0 32 32">
<path d="M32 12.408l-11.056-1.607-4.944-10.018-4.944 10.018-11.056 1.607 8 7.798-1.889 11.011 9.889-5.199 9.889 5.199-1.889-11.011 8-7.798zM16 23.547l-6.983 3.671 1.334-7.776-5.65-5.507 7.808-1.134 3.492-7.075 3.492 7.075 7.807 1.134-5.65 5.507 1.334 7.776-6.983-3.671z"></path>
</symbol>
<symbol id="icon-star-half" viewBox="0 0 32 32">
<path d="M32 12.408l-11.056-1.607-4.944-10.018-4.944 10.018-11.056 1.607 8 7.798-1.889 11.011 9.889-5.199 9.889 5.199-1.889-11.011 8-7.798zM16 23.547l-0.029 0.015 0.029-17.837 3.492 7.075 7.807 1.134-5.65 5.507 1.334 7.776-6.983-3.671z"></path>
</symbol>
<symbol id="icon-star-full" viewBox="0 0 32 32">
<path d="M32 12.408l-11.056-1.607-4.944-10.018-4.944 10.018-11.056 1.607 8 7.798-1.889 11.011 9.889-5.199 9.889 5.199-1.889-11.011 8-7.798z"></path>
</symbol>
<symbol id="icon-make-group" viewBox="0 0 32 32">
<path d="M10 4h-4c-1.1 0-2 0.9-2 2v4c0 1.1 0.9 2 2 2h4c1.1 0 2-0.9 2-2v-4c0-1.1-0.9-2-2-2z"></path>
<path d="M22 12h4c1.1 0 2-0.9 2-2v-4c0-1.1-0.9-2-2-2h-4c-1.1 0-2 0.9-2 2v4c0 1.1 0.9 2 2 2zM22 6h4v4h-4v-4z"></path>
<path d="M10 20h-4c-1.1 0-2 0.9-2 2v4c0 1.1 0.9 2 2 2h4c1.1 0 2-0.9 2-2v-4c0-1.1-0.9-2-2-2zM10 26h-4v-4h4v4z"></path>
<path d="M26 20h-4c-1.1 0-2 0.9-2 2v4c0 1.1 0.9 2 2 2h4c1.1 0 2-0.9 2-2v-4c0-1.1-0.9-2-2-2z"></path>
<path d="M28 16h-2c-2.671 0-5.182-1.040-7.071-2.929s-2.929-4.4-2.929-7.071v-2c0-2.2-1.8-4-4-4h-8c-2.2 0-4 1.8-4 4v8c0 2.2 1.8 4 4 4h2c2.671 0 5.182 1.040 7.071 2.929s2.929 4.4 2.929 7.071v2c0 2.2 1.8 4 4 4h8c2.2 0 4-1.8 4-4v-8c0-2.2-1.8-4-4-4zM30 28c0 0.53-0.209 1.031-0.589 1.411s-0.881 0.589-1.411 0.589h-8c-0.53 0-1.031-0.209-1.411-0.589s-0.589-0.881-0.589-1.411v-2c0-6.627-5.373-12-12-12h-2c-0.53 0-1.031-0.209-1.411-0.589s-0.589-0.881-0.589-1.411v-8c0-0.53 0.209-1.031 0.589-1.411s0.881-0.589 1.411-0.589h8c0.53 0 1.031 0.209 1.411 0.589s0.589 0.881 0.589 1.411v2c0 6.627 5.373 12 12 12h2c0.53 0 1.031 0.209 1.411 0.589s0.589 0.881 0.589 1.411v8z"></path>
</symbol>
</defs>
</svg>
